<svg viewBox="0 0 800 800" xmlns="http://www.w3.org/2000/svg"><path d="M764.5160720355774,182.66417314287025 L764.4546497380466,172.37616806215 M732.2451549896584,218.48228873969367 L732.1025311895238,208.10695867521696 M764.5160720355774,182.66417314287025 L732.2451549896584,218.48228873969367 M764.4546497380466,172.37616806215 L732.1025311895238,208.10695867521696 M802.6226193930628,204.740038509434 L802.6545793007258,194.39785956721335 M764.4546497380466,172.37616806215 L765.7223886794001,171.11250967531834 M765.7223886794001,171.11250967531834 L767.1805439599353,169.91961843610017 M767.1805439599353,169.91961843610017 L768.8172163830031,168.8068434869221 M768.8172163830031,168.8068434869221 L770.619149099008,167.78287562701308 M770.619149099008,167.78287562701308 L772.5718387707369,166.85568774657776 M772.5718387707369,166.85568774657776 L774.6596531667761,166.03247856934047 M774.6596531667761,166.03247856934047 L776.8659507630005,165.319621887118 M776.8659507630005,165.319621887118 L779.1732139854851,164.7226266397961 M779.1732139854851,164.7226266397961 L781.5631791110518,164.24609632910517 M781.5631791110518,164.24609632910517 L784.0169715277872,163.8937001940377 M784.0169715277872,163.8937001940377 L786.5152524815738,163.6681473920749 M786.5152524815738,163.6681473920749 L789.0383524174404,163.57117142277087 M789.0383524174404,163.57117142277087 L791.5664291111781,163.6035171886533 M791.5664291111781,163.6035171886533 L794.0795927902235,163.76493672017875 M794.0795927902235,163.76493672017875 L796.5580702610263,164.05418957826737 M796.5580702610263,164.05418957826737 L798.982340313975,164.4690518889156 M798.982340313975,164.4690518889156 L801.3332801647043,165.006331898057 M801.3332801647043,165.006331898057 L803.5922985234024,165.66189108569841 M803.5922985234024,165.66189108569841 L805.7414930406352,166.4306677321656 M805.7414930406352,166.4306677321656 L807.7637652357361,167.30671555944951 M807.7637652357361,167.30671555944951 L809.642962548734,168.28324293484394 M809.642962548734,168.28324293484394 L811.364002857062,169.35265709940631 M811.364002857062,169.35265709940631 L812.9129912969311,170.50661925598268 M812.9129912969311,170.50661925598268 L814.2773374754415,171.73610142068287 M814.2773374754415,171.73610142068287 L815.4458565338318,173.0314500013758 M815.4458565338318,173.0314500013758 L816.4088636216551,174.38246199079197 M816.4088636216551,174.38246199079197 L817.1582685693597,175.77844826692376 M817.1582685693597,175.77844826692376 L817.6876448755971,177.20832416501878 M817.6876448755971,177.20832416501878 L817.9922938814202,178.6606888329453 M817.9922938814202,178.6606888329453 L818.0692981164225,180.12391501499712 M818.0692981164225,180.12391501499712 L817.9175611314579,181.58623502309854 M817.9175611314579,181.58623502309854 L817.5378296328965,183.03584568053236 M817.5378296328965,183.03584568053236 L816.9327036993994,184.46099269612142 M816.9327036993994,184.46099269612142 L816.1066280207964,185.85007581826073 M816.1066280207964,185.85007581826073 L815.0658739230994,187.19174083651689 M815.0658739230994,187.19174083651689 L813.8184986892178,188.47498011960892 M813.8184986892178,188.47498011960892 L812.3742946246197,189.68922674451193 M812.3742946246197,189.68922674451193 L810.7447124012624,190.82444521823106 M810.7447124012624,190.82444521823106 L808.9427808873153,191.8712234185258 M808.9427808873153,191.8712234185258 L806.9830032666925,192.82085530669485 M806.9830032666925,192.82085530669485 L804.8812394651864,193.66542076110846 M804.8812394651864,193.66542076110846 L802.6545793007258,194.39785956721335 M802.6226193930628,204.740038509434 L804.8438116068404,204.00581614619352 M804.8438116068404,204.00581614619352 L806.9404207399422,203.15919253619387 M806.9404207399422,203.15919253619387 L808.8953992871793,202.20724445673017 M808.8953992871793,202.20724445673017 L810.6929263498287,201.15791067424215 M810.6929263498287,201.15791067424215 L812.3185341679423,200.01991780161956 M812.3185341679423,200.01991780161956 L813.7592254089501,198.8027002977002 M813.7592254089501,198.8027002977002 L815.0035768056651,197.51631757951282 M815.0035768056651,197.51631757951282 L816.0418191511906,196.17136188208963 M816.0418191511906,196.17136188208963 L816.865913796099,194.778867337431 M816.865913796099,194.778867337431 L817.4696034939745,193.35021563427546 M817.4696034939745,193.35021563427546 L817.8484530229276,191.89703524906037 M817.8484530229276,191.89703524906037 L817.9998671624576,190.4311092295904 M817.9998671624576,190.4311092295904 L817.9230994822414,188.96426978887195 M817.9230994822414,188.96426978887195 L817.619242200026,187.5083137248625 M817.619242200026,187.5083137248625 L817.0912041515368,186.0748972147357 M817.0912041515368,186.0748972147357 L816.3436711026733,184.67544962346432 M816.3436711026733,184.67544962346432 L815.3830525780812,183.32108348568192 M815.3830525780812,183.32108348568192 L814.2174178831274,182.0225149375729 M814.2174178831274,182.0225149375729 L812.8564273190884,180.78997290053405 M812.8564273190884,180.78997290053405 L811.3112377681078,179.63313560113727 M811.3112377681078,179.63313560113727 L809.594408468983,178.56105416406558 M809.594408468983,178.56105416406558 L807.7198002116344,177.58208884950687 M807.7198002116344,177.58208884950687 L805.7024584136474,176.7038520336759 M805.7024584136474,176.7038520336759 L803.5584965783728,175.93315295732515 M803.5584965783728,175.93315295732515 L801.3049720682437,175.2759533618991 M801.3049720682437,175.2759533618991 L798.9597443779214,174.73732816481106 M798.9597443779214,174.73732816481106 L796.5413604583474,174.32142670082777 M796.5413604583474,174.32142670082777 L794.0688976204799,174.03144907933734 M794.0688976204799,174.03144907933734 L791.5618307515525,173.8696250034575 M791.5618307515525,173.8696250034575 L789.0398861880839,173.83719816633413 M789.0398861880839,173.83719816633413 L786.5229065960767,173.93441718830837 M786.5229065960767,173.93441718830837 L784.0306871973996,174.16053521224933 M784.0306871973996,174.16053521224933 L781.5828509083915,174.51381419267778 M781.5828509083915,174.51381419267778 L779.1986905495507,174.99153787503593 M779.1986905495507,174.99153787503593 L776.8970357883843,175.59002742304114 M776.8970357883843,175.59002742304114 L774.6961067139424,176.3046673178497 M774.6961067139424,176.3046673178497 L772.6133788749046,177.12993427388727 M772.6133788749046,177.12993427388727 L770.6654536711411,178.059437948494 M770.6654536711411,178.059437948494 L768.8679254181448,179.08596098578676 M768.8679254181448,179.08596098578676 L767.2352620276688,180.2015099343834 M767.2352620276688,180.2015099343834 L765.7806876997649,181.3973716714101 M765.7806876997649,181.3973716714101 L764.5160720355774,182.66417314287025 M732.2451549896584,218.48228873969367 L740.3376915414476,223.2935076652568 M732.1025311895238,208.10695867521696 L740.2148893444061,212.9066750227164 M740.3376915414476,223.2935076652568 L740.2148893444061,212.9066750227164 M736.6017788537939,214.05296778802767 L735.7911758013307,213.5726288848948 M736.6496857862156,217.8281106358179 L736.6017788537939,214.05296778802767 M735.8398035156291,217.34735345939185 L736.6496857862156,217.8281106358179 M735.7911758013307,213.5726288848948 L735.8398035156291,217.34735345939185 M740.3376915414476,223.2935076652568 L802.6226193930628,204.740038509434 M803.5799713189385,182.03349107166787 L804.9861868784677,182.92952863071298 M804.9861868784677,182.92952863071298 L806.2206376102268,183.9069672430888 M806.2206376102268,183.9069672430888 L807.2692198879804,184.95494275271813 M807.2692198879804,184.95494275271813 L808.1198589995546,186.06177378517566 M808.1198589995546,186.06177378517566 L808.7626630444091,187.2150824558015 M808.7626630444091,187.2150824558015 L809.1900344143764,188.40193081348247 M809.1900344143764,188.40193081348247 L809.3967781414045,189.60896016119892 M809.3967781414045,189.60896016119892 L809.3801755335159,190.8225380399635 M809.3801755335159,190.8225380399635 L809.1400281028098,192.02891035512266 M809.1400281028098,192.02891035512266 L808.6786823650837,193.21435834225065 M808.6786823650837,193.21435834225065 L808.0010155012527,194.36535391312117 M808.0010155012527,194.36535391312117 L807.1143990751451,195.46872063883603 M807.1143990751451,195.46872063883603 L806.0286304626328,196.51178672751166 M806.0286304626328,196.51178672751166 L804.7558280838606,197.48253499254798 M804.7558280838606,197.48253499254798 L803.3103088788374,198.3697517469218 M803.3103088788374,198.3697517469218 L801.7084266630907,199.16316009252256 M801.7084266630907,199.16316009252256 L799.9683930927306,199.85355032166632 M799.9683930927306,199.85355032166632 L798.1100594026994,200.43288881017725 M798.1100594026994,200.43288881017725 L796.1546966989303,200.89442438340006 M796.1546966989303,200.89442438340006 L794.1247379534036,201.2327699219531 M794.1247379534036,201.2327699219531 L792.043510867694,201.44397272024344 M792.043510867694,201.44397272024344 L789.934965462619,201.5255623407632 M789.934965462619,201.5255623407632 L787.8233753976507,201.4765847460137 M787.8233753976507,201.4765847460137 L785.7330559252233,201.29761258201722 M785.7330559252233,201.29761258201722 L783.688063472283,200.99073941156576 M783.688063472283,200.99073941156576 L781.7119085859292,200.55955141626464 M781.7119085859292,200.55955141626464 L779.8272747328542,200.00908260835234 M779.8272747328542,200.00908260835234 L778.0557456447,199.34575037005152 M778.0557456447,199.34575037005152 L776.4175501819271,198.5772773892922 M776.4175501819271,198.5772773892922 L774.9313314103874,197.71258869716291 M774.9313314103874,197.71258869716291 L773.6139260472655,196.76170584940832 M773.6139260472655,196.76170584940832 L772.4801727819435,195.7356224408162 M772.4801727819435,195.7356224408162 L771.5427574455452,194.6461662527655 M771.5427574455452,194.6461662527655 L770.8120664230661,193.5058591635153 M770.8120664230661,193.5058591635153 L770.2960848673707,192.32776717511086 M770.2960848673707,192.32776717511086 L770.0003187010011,191.12534451715317 M770.0003187010011,191.12534451715317 L769.9277492647386,189.9122769309496 M769.9277492647386,189.9122769309496 L770.0788136781937,188.70232539709963 M770.0788136781937,188.70232539709963 L770.4514199906771,187.50916556151134 M770.4514199906771,187.50916556151134 L771.0409847283563,186.3462404729451 M771.0409847283563,186.3462404729451 L771.8405055163893,185.22660582492438 M771.8405055163893,185.22660582492438 L772.8406506406149,184.16279150608767 M772.8406506406149,184.16279150608767 L774.0298804374378,183.16666654902008 M774.0298804374378,183.16666654902008 L775.3945812782341,182.2493088702392 M775.3945812782341,182.2493088702392 L776.9192355273622,181.4208955869663 M776.9192355273622,181.4208955869663 L778.5865902508449,180.69059217220536 M778.5865902508449,180.69059217220536 L780.3778579297834,180.0664613080798 M780.3778579297834,180.0664613080798 L782.272918514022,179.55537851268747 M782.272918514022,179.55537851268747 L784.2505458325553,179.1629665136851 M784.2505458325553,179.1629665136851 L786.2886349046757,178.89353604111517 M786.2886349046757,178.89353604111517 L788.364434811838,178.75004352050166 M788.364434811838,178.75004352050166 L790.4547971484203,178.73406354918222 M790.4547971484203,178.73406354918222 L792.536417908441,178.84577062287167 M792.536417908441,178.84577062287167 L794.5860864315837,179.08394034174694 M794.5860864315837,179.08394034174694 L796.5809312649138,179.44595927905192 M796.5809312649138,179.44595927905192 L798.4986631368133,179.92785022699962 M798.4986631368133,179.92785022699962 L800.3178111857251,180.52431646125768 M800.3178111857251,180.52431646125768 L802.0179608746809,181.2287876934796 M802.0179608746809,181.2287876934796 L803.5799713189385,182.03349107166787 M740.2148893444061,212.9066750227164 L802.6545793007258,194.39785956721335 M803.6139246435046,171.74705032161722 L802.048089641458,170.94434425548718 M802.048089641458,170.94434425548718 L800.3437826320101,170.241622790125 M800.3437826320101,170.241622790125 L798.5201910005865,169.6466389616528 M798.5201910005865,169.6466389616528 L796.5977786685372,169.1659462679495 M796.5977786685372,169.1659462679495 L794.5980682617682,168.80482787017712 M794.5980682617682,168.80482787017712 L792.543402651309,168.56725077609224 M792.543402651309,168.56725077609224 L790.4567081909436,168.45582170248173 M790.4567081909436,168.45582170248173 L788.3612511985857,168.47176190342896 M788.3612511985857,168.47176190342896 L786.2803915459808,168.61489733166582 M786.2803915459808,168.61489733166582 L784.2373331574546,168.88365743471456 M784.2373331574546,168.88365743471456 L782.2548815837185,169.275093375932 M782.2548815837185,169.275093375932 L780.355194991924,169.78490547692945 M780.355194991924,169.78490547692945 L778.5595507667609,170.4074854011601 M778.5595507667609,170.4074854011601 L776.8881176780823,171.13597519125682 M776.8881176780823,171.13597519125682 L775.3597289422545,171.96233270614766 M775.3597289422545,171.96233270614766 L773.9916796891307,172.8774157559738 M773.9916796891307,172.8774157559738 L772.7995257614089,173.8710729926309 M772.7995257614089,173.8710729926309 L771.796914585227,174.93225444998757 M771.796914585227,174.93225444998757 L770.995414777324,176.04912092690518 M770.995414777324,176.04912092690518 L770.404381802928,177.20917389900785 M770.404381802928,177.20917389900785 L770.0308362496462,178.39939021392695 M770.0308362496462,178.39939021392695 L769.8793739997358,179.60636018179014 M769.8793739997358,179.60636018179014 L769.9520933773657,180.81644193994714 M769.9520933773657,180.81644193994714 L770.2485574535037,182.01590834717592 M770.2485574535037,182.01590834717592 L770.7657788006761,183.19110716355902 M770.7657788006761,183.19110716355902 L771.4982391249303,184.32861694635255 M771.4982391249303,184.32861694635255 L772.4379346768936,185.4154033948455 M772.4379346768936,185.4154033948455 L773.5744543960703,186.438974883678 M773.5744543960703,186.438974883678 L774.8950819098802,187.38753209273938 M774.8950819098802,187.38753209273938 L776.3849424549612,188.250107781922 M776.3849424549612,188.250107781922 L778.0271580727173,189.01670433683285 M778.0271580727173,189.01670433683285 L779.8030397564728,189.67841798165153 M779.8030397564728,189.67841798165153 L781.6923085571153,190.2275443702136 M781.6923085571153,190.2275443702136 L783.6733270954788,190.65768132636964 M783.6733270954788,190.65768132636964 L785.7233553581513,190.96380674364394 M785.7233553581513,190.96380674364394 L787.8188240643403,191.1423429099715 M787.8188240643403,191.1423429099715 L789.9356166071476,191.19120120240024 M789.9356166071476,191.19120120240024 L792.0493568681011,191.10981032546124 M792.0493568681011,191.10981032546124 L794.1357104311229,190.89912206645863 M794.1357104311229,190.89912206645863 L796.170667378131,190.56160103270497 M796.170667378131,190.56160103270497 L798.1308417574145,190.10119059176986 M798.1308417574145,190.10119059176986 L799.9937447114073,189.52326511666865 M799.9937447114073,189.52326511666865 L801.7380523095769,188.83455977641512 M801.7380523095769,188.83455977641512 L803.3438642174866,188.04308910260346 M803.3438642174866,188.04308910260346 L804.7929239630569,187.1580408533183 M804.7929239630569,187.1580408533183 L806.0688377411767,186.18966735477204 M806.0688377411767,186.18966735477204 L807.157253882403,185.14915538719504 M807.157253882403,185.14915538719504 L808.0460248763003,184.04849319162213 M808.0460248763003,184.04849319162213 L808.7253301673127,182.90032191299764 M808.7253301673127,182.90032191299764 L809.1877811406257,181.71778597631442 M809.1877811406257,181.71778597631442 L809.4284898142641,180.51438046611202 M809.4284898142641,180.51438046611202 L809.4451051573454,179.30379052643298 M809.4451051573454,179.30379052643298 L809.2378274076145,178.0997363908545 M809.2378274076145,178.0997363908545 L808.8093831539035,176.9158168035584 M808.8093831539035,176.9158168035584 L808.1649812450692,175.7653572749711 M808.1649812450692,175.7653572749711 L807.3122389223255,174.66126347358687 M807.3122389223255,174.66126347358687 L806.261073161215,173.6158822680971 M806.261073161215,173.6158822680971 L805.0235888810201,172.640865644136 M805.0235888810201,172.640865644136 L803.6139246435046,171.74705032161722 M749.0809148007332,206.87059274388275 L748.2702397045699,206.3934920713578 M748.2702397045699,206.3934920713578 L735.7911758013307,213.5726288848948 M749.0809148007332,206.87059274388275 L736.6017788537939,214.05296778802767 M749.1174328110285,210.63946081827214 L749.0809148007332,206.87059274388275 M749.1174328110285,210.63946081827214 L736.6496857862156,217.8281106358179 M748.3074786913379,210.16194178159503 L749.1174328110285,210.63946081827214 M748.3074786913379,210.16194178159503 L735.8398035156291,217.34735345939185 M748.2702397045699,206.3934920713578 L748.3074786913379,210.16194178159503 M803.5799713189385,182.03349107166787 L803.6139246435046,171.74705032161722" stroke="black"  stroke-width="4"  fill="red"/>
<path d="M760.6360178493135,196.4387496212101 L760.3063407130063,148.75476293100422 M744.9053551284346,205.47634178565107 L744.3948598825064,157.68878202237147 M760.6360178493135,196.4387496212101 L761.6535829713216,197.1251189442226 M761.6535829713216,197.1251189442226 L762.4916203935638,197.88966889376007 M762.4916203935638,197.88966889376007 L763.1329478889928,198.71698792341897 M763.1329478889928,198.71698792341897 L763.5643282630504,199.5903566787099 M763.5643282630504,199.5903566787099 L763.7767326581783,200.49208935537928 M763.7767326581783,200.49208935537928 L763.7655587181865,201.40387845974033 M763.7655587181865,201.40387845974033 L763.5307543390891,202.30715991809905 M763.5307543390891,202.30715991809905 L763.0768154283041,203.1835039083088 M763.0768154283041,203.1835039083088 L762.4127481431148,204.01497606603573 M762.4127481431148,204.01497606603573 L761.551878284402,204.7845295508617 M761.551878284402,204.7845295508617 L760.5116163062992,205.47634178565107 M760.5116163062992,205.47634178565107 L759.313098292652,206.07616640979313 M759.313098292652,206.07616640979313 L757.9807610585002,206.57162748262965 M757.9807610585002,206.57162748262965 L756.541857319382,206.95248382433033 M756.541857319382,206.95248382433033 L755.0258607302529,207.21085820177302 M755.0258607302529,207.21085820177302 L753.4638857970019,207.34139602988068 M753.4638857970019,207.34139602988068 L751.8880001675966,207.34139739900127 M751.8880001675966,207.34139739900127 L750.3305798523381,207.2108577454557 M750.3305798523381,207.2108577454557 L748.8236036548832,206.95248336812426 M748.8236036548832,206.95248336812426 L747.3979859109738,206.5716279386719 M747.3979859109738,206.5716279386719 L746.082941280782,206.0761674354083 M746.082941280782,206.0761674354083 L744.9053551284346,205.47634178565107 M760.3063407130063,148.75476293100422 L761.3353551921186,149.4332357871648 M761.3353551921186,149.4332357871648 L762.1827981993926,150.18899572867622 M762.1827981993926,150.18899572867622 L762.8312932505801,151.00681010402644 M762.8312932505801,151.00681010402644 L763.2674529953265,151.87015306662158 M763.2674529953265,151.87015306662158 L763.4821456796377,152.7615428661262 M763.4821456796377,152.7615428661262 L763.4707160198078,153.66288254533328 M763.4707160198078,153.66288254533328 L763.2331106290596,154.55582080390843 M763.2331106290596,154.55582080390843 L762.7738760313485,155.42213834642348 M762.7738760313485,155.42213834642348 L762.1021207424077,156.24410500192045 M762.1021207424077,156.24410500192045 L761.2313227219132,157.0048674039549 M761.2313227219132,157.0048674039549 L760.1790918800523,157.68878202237147 M760.1790918800523,157.68878202237147 L758.9668070519574,158.28176326894823 M758.9668070519574,158.28176326894823 L757.6191862587101,158.77157453227858 M757.6191862587101,158.77157453227858 L756.1637962569238,159.14808969390623 M756.1637962569238,159.14808969390623 L754.6304506098838,159.40351987741366 M754.6304506098838,159.40351987741366 L753.0506227276347,159.53257048811122 M753.0506227276347,159.53257048811122 L751.4567499966822,159.5325718416343 M751.4567499966822,159.5325718416343 L749.8815813040593,159.40351942629547 M749.8815813040593,159.40351942629547 L748.3574630696552,159.14808924289923 M748.3574630696552,159.14808924289923 L746.9156640551911,158.77157498312158 M746.9156640551911,158.77157498312158 L745.5857326498875,158.28176428286542 M745.5857326498875,158.28176428286542 L744.3948598825064,157.68878202237147 M744.9053551284346,205.47634178565107 L743.889233511893,204.78452943704343 M743.889233511893,204.78452943704343 L743.0552196515373,204.0149774308636 M743.0552196515373,204.0149774308636 L742.4201698152763,203.18350254455282 M742.4201698152763,203.18350254455282 L741.9968125654494,202.3071608265168 M741.9968125654494,202.3071608265168 L741.7935268159822,201.40387891356136 M741.7935268159822,201.40387891356136 L741.8141762037064,200.49208980880894 M741.8141762037064,200.49208980880894 L742.0580451624068,199.59035758479553 M742.0580451624068,199.59035758479553 L742.5199034731857,198.71698656541417 M742.5199034731857,198.71698656541417 L743.1901033615094,197.88967025070093 M743.1901033615094,197.88967025070093 L744.054822234834,197.12511883122613 M744.054822234834,197.12511883122613 L745.0963377789777,196.4387496212101 M745.0963377789777,196.4387496212101 L746.2934123637187,195.84436803768563 M746.2934123637187,195.84436803768563 L747.6217260820727,195.3539090652958 M747.6217260820727,195.3539090652958 L749.0543522032497,194.9772086156898 M749.0543522032497,194.9772086156898 L750.5623256083065,194.72180726193767 M750.5623256083065,194.72180726193767 L752.1151818260721,194.59281868258546 M752.1151818260721,194.59281868258546 L753.6815919217437,194.59281732988006 M753.6815919217437,194.59281732988006 L755.2299475834113,194.7218077128947 M755.2299475834113,194.7218077128947 L756.7290043693489,194.97720906675596 M756.7290043693489,194.97720906675596 L758.1484894933603,195.3539086140683 M758.1484894933603,195.3539086140683 L759.4596851748823,195.84436702195114 M759.4596851748823,195.84436702195114 L760.6360178493135,196.4387496212101 M744.3948598825064,157.68878202237147 L743.3673230540787,157.0048672914363 M743.3673230540787,157.0048672914363 L742.523996716111,156.2441063511514 M742.523996716111,156.2441063511514 L741.8819238506862,155.42213699826425 M741.8819238506862,155.42213699826425 L741.4539714659944,154.5558217019285 M741.4539714659944,154.5558217019285 L741.2486064477763,153.66288299395546 M741.2486064477763,153.66288299395546 L741.2697284274251,152.76154331435714 M741.2697284274251,152.76154331435714 L741.5166055514774,151.87015396230998 M741.5166055514774,151.87015396230998 L741.9839402034058,151.00680876161704 M741.9839402034058,151.00680876161704 L742.6619676140036,150.18899707002197 M742.6619676140036,150.18899707002197 L743.5367017297377,149.4332356754678 M743.5367017297377,149.4332356754678 L744.590213724647,148.75476293100422 M744.590213724647,148.75476293100422 L745.8010209822863,148.16722357454216 M745.8010209822863,148.16722357454216 L747.1445251546609,147.6824133546408 M747.1445251546609,147.6824133546408 L748.5934930131128,147.310053207112 M748.5934930131128,147.310053207112 L750.1186312380223,147.05759541931332 M750.1186312380223,147.05759541931332 L751.6891313810534,146.9300937301664 M751.6891313810534,146.9300937301664 L753.2733117022074,146.93009239305502 M753.2733117022074,146.93009239305502 L754.8392085841749,147.05759586507236 M754.8392085841749,147.05759586507236 L756.3552267517703,147.31005365298023 M756.3552267517703,147.31005365298023 L757.7907536277439,147.68241290861135 M757.7907536277439,147.68241290861135 L759.1167490065951,148.16722257050367 M759.1167490065951,148.16722257050367 L760.3063407130063,148.75476293100422" stroke="black"  stroke-width="4"  fill="red"/>
<path d="M748.2702397045699,206.3934920713578 L748.3074786913379,210.16194178159503 M748.3074786913379,210.16194178159503 L3.983282752984792,639.1333172937198 M3.132856666673433,635.0669293731311 L3.983282752984792,639.1333172937198 M748.2702397045699,206.3934920713578 L3.132856666673433,635.0669293731311 M748.3074786913379,210.16194178159503 L749.1174328110285,210.63946081827214 M749.1174328110285,210.63946081827214 L749.0809148007332,206.87059274388275 M749.0809148007332,206.87059274388275 L748.2702397045699,206.3934920713578 M749.1174328110285,210.63946081827214 L4.755685570398782,639.8233324383945 M3.983282752984792,639.1333172937198 L4.755685570398782,639.8233324383945 M3.905865570210949,635.7565909307596 L3.132856666673433,635.0669293731311 M4.755685570398782,639.8233324383945 L3.905865570210949,635.7565909307596 M749.0809148007332,206.87059274388275 L3.905865570210949,635.7565909307596" stroke="black"  stroke-width="4"  fill="red"/>
<path d="M-6.107535027930339,651.1285471988358 L-7.189218997136322,646.0382693758886 M6.407691506261131,641.7122948722437 L5.3469344751972585,636.6279839803756 M-6.107535027930339,651.1285471988358 L6.407691506261131,641.7122948722437 M-7.189218997136322,646.0382693758886 L5.3469344751972585,636.6279839803756 M2.5460542440256404,638.2619977488548 L1.4815091682887669,633.1798967755269 M6.407691506261131,641.7122948722437 L2.5460542440256404,638.2619977488548 M5.3469344751972585,636.6279839803756 L1.4815091682887669,633.1798967755269 M-12.923401178233462,644.9893847610418 L-14.011734146339336,639.9029865700253 M2.5460542440256404,638.2619977488548 L-12.923401178233462,644.9893847610418 M1.4815091682887669,633.1798967755269 L-14.011734146339336,639.9029865700253 M-15.964199378676653,651.7711407262223 L-17.059556119156014,646.6804591263564 M-12.923401178233462,644.9893847610418 L-14.037809111602428,645.5402780420917 M-14.037809111602428,645.5402780420917 L-15.019438872741489,646.20940964867 M-15.019438872741489,646.20940964867 L-15.83098058789517,646.9715012565903 M-15.83098058789517,646.9715012565903 L-16.44132836121696,647.7976027216982 M-16.44132836121696,647.7976027216982 L-16.827145425563913,648.6563868349423 M-16.827145425563913,648.6563868349423 L-16.973535091012423,649.5151872517783 M-16.973535091012423,649.5151872517783 L-16.874561624883427,650.341192930269 M-16.874561624883427,650.341192930269 L-16.53386369050952,651.1029032192422 M-16.53386369050952,651.1029032192422 L-15.964199378676653,651.7711407262223 M-14.011734146339336,639.9029865700253 L-15.127888277722832,640.4535300841127 M-15.127888277722832,640.4535300841127 L-16.111135269638908,641.1222372856864 M-16.111135269638908,641.1222372856864 L-16.924103850008237,641.8838461054346 M-16.924103850008237,641.8838461054346 L-17.535633421156717,642.7094249269638 M-17.535633421156717,642.7094249269638 L-17.922341910378805,643.5676664861329 M-17.922341910378805,643.5676664861329 L-18.069298116422488,644.4259251200833 M-18.069298116422488,644.4259251200833 L-17.970543864845354,645.2514104418829 M-17.970543864845354,645.2514104418829 L-17.62970896568538,646.0126415188992 M-17.62970896568538,646.0126415188992 L-17.059556119156014,646.6804591263564 M-15.964199378676653,651.7711407262223 L-15.187203991559954,652.3203085304242 M-15.187203991559954,652.3203085304242 L-14.23243217236427,652.7293041780982 M-14.23243217236427,652.7293041780982 L-13.136381998648858,652.9824341724322 M-13.136381998648858,652.9824341724322 L-11.940874656753977,653.069907606945 M-11.940874656753977,653.069907606945 L-10.69178552759763,652.9884261124487 M-10.69178552759763,652.9884261124487 L-9.436914251644112,652.7411118237139 M-9.436914251644112,652.7411118237139 L-8.224205434008695,652.3374301947847 M-8.224205434008695,652.3374301947847 L-7.100133290929534,651.7929559610752 M-7.100133290929534,651.7929559610752 L-6.107535027930339,651.1285471988358 M-17.059556119156014,646.6804591263564 L-16.281738954188086,647.229282204913 M-16.281738954188086,647.229282204913 L-15.325843272687507,647.6380213239484 M-15.325843272687507,647.6380213239484 L-14.228410208541732,647.890992639882 M-14.228410208541732,647.890992639882 L-13.031313886655994,647.9784112561223 M-13.031313886655994,647.9784112561223 L-11.780490990844669,647.8969808245821 M-11.780490990844669,647.8969808245821 L-10.523807842936321,647.6498215662516 M-10.523807842936321,647.6498215662516 L-9.30927859164342,647.2463931267359 M-9.30927859164342,647.2463931267359 L-8.183447503246157,646.7022606611746 M-8.183447503246157,646.7022606611746 L-7.189218997136322,646.0382693758886 M-13.54973114509312,650.3790067400581 L-14.641211528826034,645.2892004475082 M-7.525012843038894,646.9052749308364 L-8.60683628731465,641.8176617099151 M-13.54973114509312,650.3790067400581 L-13.923056250123182,649.9123392736124 M-13.923056250123182,649.9123392736124 L-14.099243713595797,649.3719160777197 M-14.099243713595797,649.3719160777197 L-14.068276515876278,648.789279317689 M-14.068276515876278,648.789279317689 L-13.832021396773143,648.1982824657634 M-13.832021396773143,648.1982824657634 L-13.404375132171594,647.6332797407835 M-13.404375132171594,647.6332797407835 L-12.81020446749801,647.1270052887979 M-12.81020446749801,647.1270052887979 L-12.08420826122358,646.708871941525 M-12.08420826122358,646.708871941525 L-11.26841316644709,646.4030058788104 M-11.26841316644709,646.4030058788104 L-10.410270682083365,646.2271732285977 M-10.410270682083365,646.2271732285977 L-9.559441760414416,646.1914909110319 M-9.559441760414416,646.1914909110319 L-8.765267833801772,646.2980407856647 M-8.765267833801772,646.2980407856647 L-8.073714636339218,646.540623306031 M-8.073714636339218,646.540623306031 L-7.525012843038894,646.9052749308364 M-14.641211528826034,645.2892004475082 L-15.014844860966605,644.8228268588348 M-15.014844860966605,644.8228268588348 L-15.191041107357023,644.2827442757742 M-15.191041107357023,644.2827442757742 L-15.159783252155876,643.7004750812107 M-15.159783252155876,643.7004750812107 L-14.922955203968968,643.1098514363239 M-14.922955203968968,643.1098514363239 L-14.494487444361653,642.5452058494557 M-14.494487444361653,642.5452058494557 L-13.899294565591731,642.0392517007944 M-13.899294565591731,642.0392517007944 L-13.172135106777432,641.6213830976264 M-13.172135106777432,641.6213830976264 L-12.355102984804944,641.3157108135089 M-12.355102984804944,641.3157108135089 L-11.495721518043638,641.1399896053083 M-11.495721518043638,641.1399896053083 L-10.643723157873183,641.1043299070475 M-10.643723157873183,641.1043299070475 L-9.84851697088311,641.2108122428673 M-9.84851697088311,641.2108122428673 L-9.156128263908727,641.4532410422225 M-9.156128263908727,641.4532410422225 L-8.60683628731465,641.8176617099151 M-7.525012843038894,646.9052749308364 L-7.1509621886449395,647.3708478106863 M-7.1509621886449395,647.3708478106863 L-6.973447989252577,647.9104271301146 M-6.973447989252577,647.9104271301146 L-7.0027914415811665,648.4926641348668 M-7.0027914415811665,648.4926641348668 L-7.2374976270524485,649.0837968734579 M-7.2374976270524485,649.0837968734579 L-7.664024653927186,649.6494399906059 M-7.664024653927186,649.6494399906059 L-8.257762159520325,650.1567127180462 M-8.257762159520325,650.1567127180462 L-8.984110533996159,650.5759733884829 M-8.984110533996159,650.5759733884829 L-9.800962509073656,650.8828377639194 M-9.800962509073656,650.8828377639194 L-10.660624334124805,651.059310784522 M-10.660624334124805,651.059310784522 L-11.513087088503653,651.0951289802665 M-11.513087088503653,651.0951289802665 L-12.30863498138524,650.9881792929093 M-12.30863498138524,650.9881792929093 L-13.00098770382749,650.7447530017402 M-13.00098770382749,650.7447530017402 L-13.54973114509312,650.3790067400581 M-8.60683628731465,641.8176617099151 L-8.232474968333804,642.2829399175736 M-8.232474968333804,642.2829399175736 L-8.054948021312612,642.8221780117095 M-8.054948021312612,642.8221780117095 L-8.084577548128777,643.4040471608647 M-8.084577548128777,643.4040471608647 L-8.319852510857459,643.9948067910394 M-8.319852510857459,643.9948067910394 L-8.747198263322161,644.5600932348526 M-8.747198263322161,644.5600932348526 L-9.341957230425123,645.0670463834873 M-9.341957230425123,645.0670463834873 L-10.069470294078656,645.4860431279982 M-10.069470294078656,645.4860431279982 L-10.887562593352072,645.7927144493855 M-10.887562593352072,645.7927144493855 L-11.748467802401024,645.96907649274 M-11.748467802401024,645.96907649274 L-12.602104493448564,646.0048721677964 M-12.602104493448564,646.0048721677964 L-13.398688210751175,645.8979897290783 M-13.398688210751175,645.8979897290783 L-14.091878256706082,645.6547165465341 M-14.091878256706082,645.6547165465341 L-14.641211528826034,645.2892004475082" stroke="black"  stroke-width="4"  fill="red"/></svg>