<svg viewBox="0 0 800 800" xmlns="http://www.w3.org/2000/svg"><path d="M764.5750322163642,184.93100755384222 L764.4968269244891,171.83191369875925 M732.3126279702394,220.7396746293656 L732.1310316488932,207.52924431772385 M764.5750322163642,184.93100755384222 L732.3126279702394,220.7396746293656 M764.4968269244891,171.83191369875925 L732.1310316488932,207.52924431772385 M802.6715273832646,207.00104949053934 L802.7122202846596,193.8328866678035 M764.4968269244891,171.83191369875925 L765.7650857032249,170.56945358646777 M765.7650857032249,170.56945358646777 L767.2238357613564,169.37769445183216 M767.2238357613564,169.37769445183216 L768.8611729461704,168.26597639260228 M768.8611729461704,168.26597639260228 L770.6638349750704,167.2429817740982 M770.6638349750704,167.2429817740982 L772.6173126476531,166.31667572706107 M772.6173126476531,166.31667572706107 L774.7059674861775,165.49424995080142 M774.7059674861775,165.49424995080142 L776.9131513826574,164.78207200300693 M776.9131513826574,164.78207200300693 L779.2213398906694,164.18564542426526 M779.2213398906694,164.18564542426526 L781.6122621715047,163.70956919645153 M781.6122621715047,163.70956919645153 L784.0670363006491,163.35750895080952 M784.0670363006491,163.35750895080952 L786.5663160633862,163.1321711780704 M786.5663160633862,163.1321711780704 L789.0904243386688,163.03528767013023 M789.0904243386688,163.03528767013023 L791.6195112823325,163.06760259539953 M791.6195112823325,163.06760259539953 L794.1336794859064,163.22886822875023 M794.1336794859064,163.22886822875023 L796.6131481573987,163.51784535336083 M796.6131481573987,163.51784535336083 L799.0383885684485,163.93231228519534 M799.0383885684485,163.93231228519534 L801.390270542935,164.46908041034567 M801.390270542935,164.46908041034567 L803.6501955692538,165.12401527526566 M803.6501955692538,165.12401527526566 L805.800254300184,165.89206012579746 M805.800254300184,165.89206012579746 L807.8233415199833,166.76727450610838 M807.8233415199833,166.76727450610838 L809.7032982477326,167.74287341872645 M809.7032982477326,167.74287341872645 L811.4250363005103,168.81127150414295 M811.4250363005103,168.81127150414295 L812.9746551603818,169.96413806939103 M812.9746551603818,169.96413806939103 L814.3395592345403,171.1924538783585 M814.3395592345403,171.1924538783585 L815.5085589623907,172.48657466291496 M815.5085589623907,172.48657466291496 L816.4719653331886,173.8363072370966 M816.4719653331886,173.8363072370966 L817.2216846041033,175.2309727314323 M817.2216846041033,175.2309727314323 L817.7512873247413,176.6594970738518 M817.7512873247413,176.6594970738518 L818.0560725481026,178.11049026561255 M818.0560725481026,178.11049026561255 L818.1331212104687,179.57233607696293 M818.1331212104687,179.57233607696293 L817.9813359932913,181.03327793508413 M817.9813359932913,181.03327793508413 L817.6014634801406,182.48152376803694 M817.6014634801406,182.48152376803694 L816.9961043912501,183.9053302999679 M816.9961043912501,183.9053302999679 L816.1697048323142,185.29310810799512 M816.1697048323142,185.29310810799512 L815.1285383247966,186.63351354040992 M815.1285383247966,186.63351354040992 L813.880665121613,187.9155491645053 M813.880665121613,187.9155491645053 L812.4358812619732,189.1286578126905 M812.4358812619732,189.1286578126905 L810.8056418921011,190.26281322543252 M810.8056418921011,190.26281322543252 L809.0029810681599,191.30861191276415 M809.0029810681599,191.30861191276415 L807.0424078368837,192.25735579702234 M807.0424078368837,192.25735579702234 L804.9397886147069,193.10113197929354 M804.9397886147069,193.10113197929354 L802.7122202846596,193.8328866678035 M802.6715273832646,207.00104949053934 L804.892133664991,206.26702080905807 M804.892133664991,206.26702080905807 L806.988189730023,205.42062053133247 M806.988189730023,205.42062053133247 L808.9426525701624,204.46892356786293 M808.9426525701624,204.46892356786293 L810.7397054601072,203.41986659090827 M810.7397054601072,203.41986659090827 L812.3648844563849,202.28217391135053 M812.3648844563849,202.28217391135053 L813.8051956550132,201.06527749929558 M813.8051956550132,201.06527749929558 L815.0492188021685,199.7792341181812 M815.0492188021685,199.7792341181812 L816.0871872679894,198.4346332088964 M816.0871872679894,198.4346332088964 L816.9110645235776,197.04250599272928 M816.9110645235776,197.04250599272928 L817.5145949731266,195.61423115602304 M817.5145949731266,195.61423115602304 L817.8933445647215,194.16143410771986 M817.8933445647215,194.16143410771986 L818.0447187624594,192.69589478735418 M818.0447187624594,192.69589478735418 L817.9679713329194,191.22944228669297 M817.9679713329194,191.22944228669297 L817.6641942057305,189.77387029179636 M817.6641942057305,189.77387029179636 L817.1362954492913,188.3408319050355 M817.1362954492913,188.3408319050355 L816.3889595934352,186.94175347641135 M816.3889595934352,186.94175347641135 L815.4285944720286,185.5877446091634 M815.4285944720286,185.5877446091634 L814.2632672618226,184.28951861264824 M814.2632672618226,184.28951861264824 L812.9026357157868,183.0573017099581 M812.9026357157868,183.0573017099581 L811.3578537729716,181.9007695746294 M811.3578537729716,181.9007695746294 L809.6414773591516,180.82897094373345 M809.6414773591516,180.82897094373345 L807.7673636078861,179.85026387209103 M807.7673636078861,179.85026387209103 L805.7505539679044,178.97225872783508 M805.7505539679044,178.97225872783508 L803.6071576919487,178.20176295549743 M803.6071576919487,178.20176295549743 L801.3542276428622,177.54473672386433 M801.3542276428622,177.54473672386433 L799.0096186041193,177.0062536116281 M799.0096186041193,177.0062536116281 L796.59187263413,176.59046185899547 M796.59187263413,176.59046185899547 L794.1200620114167,176.30056073119238 M794.1200620114167,176.30056073119238 L791.6136564858996,176.13877934315929 M791.6136564858996,176.13877934315929 L789.0923771904531,176.1063610599661 M789.0923771904531,176.1063610599661 L786.5760615567499,176.20355443637004 M786.5760615567499,176.20355443637004 L784.0844995848438,176.42961281225502 M784.0844995848438,176.42961281225502 L781.6373090147108,176.78279860062355 M781.6373090147108,176.78279860062355 L779.253777577564,177.26039626344357 M779.253777577564,177.26039626344357 L776.9527299738002,177.85872793487852 M776.9527299738002,177.85872793487852 L774.7523814861618,178.57317931362047 M774.7523814861618,178.57317931362047 L772.6702030534236,179.39822857109175 M772.6702030534236,179.39822857109175 L770.7227916961446,180.32748705035186 M770.7227916961446,180.32748705035186 L768.9257376161665,181.35373929939612 M768.9257376161665,181.35373929939612 L767.2935049087281,182.46899397544883 M767.2935049087281,182.46899397544883 L765.8393142854466,183.66454025408495 M765.8393142854466,183.66454025408495 L764.5750322163642,184.93100755384222 M732.3126279702394,220.7396746293656 L740.403029778123,225.54962439535007 M732.1310316488932,207.52924431772385 L740.2466711519982,212.32452809494185 M740.403029778123,225.54962439535007 L740.2466711519982,212.32452809494185 M736.6501199114925,214.89445803452656 L735.8394601367645,214.41440324411968 M736.6980466643411,218.6711627636417 L736.6501199114925,214.89445803452656 M735.8881079622563,218.1906889492945 L736.6980466643411,218.6711627636417 M735.8394601367645,214.41440324411968 L735.8881079622563,218.1906889492945 M740.403029778123,225.54962439535007 L802.6715273832646,207.00104949053934 M803.6286267676564,184.3004918513302 L805.0344713792044,185.19629304311195 M805.0344713792044,185.19629304311195 L806.268596473117,186.17347381530283 M806.268596473117,186.17347381530283 L807.3169021435777,187.22117287769981 M807.3169021435777,187.22117287769981 L808.1673168636219,188.32771193732714 M808.1673168636219,188.32771193732714 L808.8099513421103,189.48071637470787 M808.8099513421103,189.48071637470787 L809.2372099750609,190.66725165165298 M809.2372099750609,190.66725165165298 L809.4438991648115,191.87396259505613 M809.4438991648115,191.87396259505613 L809.4273009365529,193.08722034205925 M809.4273009365529,193.08722034205925 L809.1872168547436,194.2932744262248 M809.1872168547436,194.2932744262248 L808.7259928161902,195.47840970202316 M808.7259928161902,195.47840970202316 L808.0485047152474,196.62910164982503 M808.0485047152474,196.62910164982503 L807.1621221711866,197.7321773165649 M807.1621221711866,197.7321773165649 L806.0766399754132,198.77496825307276 M806.0766399754132,198.77496825307276 L804.8041733513335,199.74546044278213 M804.8041733513335,199.74546044278213 L803.3590354622665,200.63244315674768 M803.3590354622665,200.63244315674768 L801.7575758097391,201.42564220781878 M801.7575758097391,201.42564220781878 L800.0180012457777,202.1158503177562 M800.0180012457777,202.1158503177562 L798.160157768734,202.6950359815873 M798.160157768734,202.6950359815873 L796.2053108734001,203.15644980556056 M796.2053108734001,203.15644980556056 L794.1758876141246,203.49470609137177 M794.1758876141246,203.49470609137177 L792.0952095388283,203.7058531761187 M792.0952095388283,203.7058531761187 L789.9872203505123,203.78742127397442 M789.9872203505123,203.78742127397442 L787.8761873054591,203.73845659910745 M787.8761873054591,203.73845659910745 L785.7864192419411,203.55953164648076 M785.7864192419411,203.55953164648076 L783.7419662410191,203.25273942662216 M783.7419662410191,203.25273942662216 L781.7663326479055,202.82166517513167 M781.7663326479055,202.82166517513167 L779.8821959455825,202.2713415763173 M779.8821959455825,202.2713415763173 L778.111134172083,201.6081843195496 M778.111134172083,201.6081843195496 L776.4733708516623,200.83991405557776 M776.4733708516623,200.83991405557776 L774.9875441322862,199.97545346114129 M774.9875441322862,199.97545346114129 L773.6704862897534,199.02482144838143 M773.6704862897534,199.02482144838143 L772.537032099123,197.99900871206728 M772.537032099123,197.99900871206728 L771.5998640451021,196.90983991350726 M771.5998640451021,196.90983991350726 L770.8693657728437,195.7698336277931 M770.8693657728437,195.7698336277931 L770.3535203287956,194.592052410267 M770.3535203287956,194.592052410267 L770.0578321830833,193.38994694141616 M770.0578321830833,193.38994694141616 L769.9852818900354,192.17719935236306 M769.9852818900354,192.17719935236306 L770.1363064539532,190.96756699367484 M770.1363064539532,190.96756699367484 L770.5088144759873,189.77472190373777 M770.5088144759873,189.77472190373777 L771.0982236913869,188.6121035851478 M771.0982236913869,188.6121035851478 L771.8975335724789,187.4927642874448 M771.8975335724789,187.4927642874448 L772.8974148667303,186.42923059398663 M772.8974148667303,186.42923059398663 L774.0863309546136,185.4333684064065 M774.0863309546136,185.4333684064065 L775.4506717986667,184.51625271895938 M775.4506717986667,184.51625271895938 L776.9749238566715,183.68805796422777 M776.9749238566715,183.68805796422777 L778.6418387458314,182.95794719743986 M778.6418387458314,182.95794719743986 L780.4326339032389,182.33398097385066 M780.4326339032389,182.33398097385066 L782.3271945862402,181.82303299785343 M782.3271945862402,181.82303299785343 L784.3043002231182,181.43072451387604 M784.3043002231182,181.43072451387604 L786.3418516642748,181.1613651148263 M786.3418516642748,181.1613651148263 L788.4171039926682,181.0179104463475 M788.4171039926682,181.0179104463475 L790.5069149090341,181.0019346904117 M790.5069149090341,181.0019346904117 L792.5879865547931,181.1136122967033 M792.5879865547931,181.1136122967033 L794.6371143924092,181.35171918838552 M794.6371143924092,181.35171918838552 L796.6314330022465,181.71364262810272 M796.6314330022465,181.71364262810272 L798.5486589924117,182.19540645722208 M798.5486589924117,182.19540645722208 L800.3673271651825,182.7917153486432 M800.3673271651825,182.7917153486432 L802.0670283687759,183.49600074720718 M802.0670283687759,183.49600074720718 L803.6286267676564,184.3004918513302 M740.2466711519982,212.32452809494185 L802.7122202846596,193.8328866678035 M803.671857471012,171.20339239688752 L802.1053894854426,170.40144770776408 M802.1053894854426,170.40144770776408 L800.4003950124188,169.69939312048166 M800.4003950124188,169.69939312048166 L798.5760690937745,169.10497417428547 M798.5760690937745,169.10497417428547 L796.6528837590402,168.6247380190481 M796.6528837590402,168.6247380190481 L794.6523701137842,168.26396269096455 M794.6523701137842,168.26396269096455 L792.5968797940845,168.0266113452742 M792.5968797940845,168.0266113452742 L790.5093481207027,167.91528816522361 M790.5093481207027,167.91528816522361 L788.413050495763,167.93121321735265 M788.413050495763,167.93121321735265 L786.3313559074602,168.07421262367217 M786.3313559074602,168.07421262367217 L784.287477342813,168.34271735873705 M784.287477342813,168.34271735873705 L782.3042292779123,168.7337814514858 M782.3042292779123,168.7337814514858 L780.4037785807644,169.2431093980955 M780.4037785807644,169.2431093980955 L778.6074110298459,169.86509830055348 M778.6074110298459,169.86509830055348 L776.9353033993001,170.59289684174507 M776.9353033993001,170.59289684174507 L775.4062964356971,171.41847065328182 M775.4062964356971,171.41847065328182 L774.0376922473387,172.33268636274306 M774.0376922473387,172.33268636274306 L772.845053023436,173.3254023898363 M772.845053023436,173.3254023898363 L771.8420318342442,174.3855793736828 M771.8420318342442,174.3855793736828 L771.0402021642288,175.50138944444097 M771.0402021642288,175.50138944444097 L770.4489235075331,176.66034600503832 M770.4489235075331,176.66034600503832 L770.0752195819866,177.84943829299323 M770.0752195819866,177.84943829299323 L769.9236884522697,179.05526933567938 M769.9236884522697,179.05526933567938 L769.9964296332773,180.26421016610806 M769.9964296332773,180.26421016610806 L770.2930063644351,181.46254657705379 M770.2930063644351,181.46254657705379 L770.8104303426214,182.63663915021255 M770.8104303426214,182.63663915021255 L771.5431813468665,183.77307900729812 M771.5431813468665,183.77307900729812 L772.4832526536945,184.85884401152117 M772.4832526536945,184.85884401152117 L773.6202292007272,185.88145415995092 M773.6202292007272,185.88145415995092 L774.9413896170524,186.82912107942485 M774.9413896170524,186.82912107942485 L776.4318531969418,187.6908876776768 M776.4318531969418,187.6908876776768 L778.0747351543016,188.45676556826498 M778.0747351543016,188.45676556826498 L779.8513388471443,189.11785917551413 M779.8513388471443,189.11785917551413 L781.7413769757763,189.66647123507295 M781.7413769757763,189.66647123507295 L783.7232031952124,190.09620544594418 M783.7232031952124,190.09620544594418 L785.7740680239621,190.40204430421954 M785.7740680239621,190.40204430421954 L787.8703923336186,190.5804133733867 M787.8703923336186,190.5804133733867 L789.988049418394,190.62922594147398 M789.988049418394,190.62922594147398 L792.1026529416898,190.54791123554645 M792.1026529416898,190.54791123554645 L794.1898582882382,190.33742017231685 M794.1898582882382,190.33742017231685 L796.2256454902595,190.00021510380975 M796.2256454902595,190.00021510380975 L798.186618832354,189.54023578648702 M798.186618832354,189.54023578648702 L800.0502801034903,188.96285166645936 M800.0502801034903,188.96285166645936 L801.7952965497557,188.27479172964507 M801.7952965497557,188.27479172964507 L803.4017596568524,187.4840631373345 M803.4017596568524,187.4840631373345 L804.8514055110031,186.59984518145427 M804.8514055110031,186.59984518145427 L806.1278336943255,185.6323807195492 M806.1278336943255,185.6323807195492 L807.2166868248202,184.59284617417677 M807.2166868248202,184.59284617417677 L808.1058126406131,183.49321865635227 M808.1058126406131,183.49321865635227 L808.7853868376556,182.34612754077085 M808.7853868376556,182.34612754077085 L809.2480180875076,181.16470497626244 M809.2480180875076,181.16470497626244 L809.488816744431,179.96243340389992 M809.488816744431,179.96243340389992 L809.5054311638767,178.75298510478126 M809.5054311638767,178.75298510478126 L809.2980620104374,177.55006737443682 M809.2980620104374,177.55006737443682 L808.869437314582,176.36726609169693 M808.869437314582,176.36726609169693 L808.2247683485771,175.21789411945463 M808.2247683485771,175.21789411945463 L807.3716757148894,174.11484483854065 M807.3716757148894,174.11484483854065 L806.3200806319177,173.0704533262671 M806.3200806319177,173.0704533262671 L805.082093088117,172.0963604082288 M805.082093088117,172.0963604082288 L803.671857471012,171.20339239688752 M749.1302390491071,207.71633891594877 L748.3195071765481,207.23952153204306 M748.3195071765481,207.23952153204306 L735.8394601367645,214.41440324411968 M749.1302390491071,207.71633891594877 L736.6501199114925,214.89445803452656 M749.1667720843625,211.48675765238482 L749.1302390491071,207.71633891594877 M749.1667720843625,211.48675765238482 L736.6980466643411,218.6711627636417 M748.3567614792548,211.00952115944716 L749.1667720843625,211.48675765238482 M748.3567614792548,211.00952115944716 L735.8881079622563,218.1906889492945 M748.3195071765481,207.23952153204306 L748.3567614792548,211.00952115944716 M803.6286267676564,184.3004918513302 L803.671857471012,171.20339239688752" stroke="black"  stroke-width="4"  fill="red"/>
<path d="M760.6764349863622,195.87187228256425 L760.3463977989873,148.13580836760195 M744.9391915881954,204.90106306124017 L744.4281358280786,157.0610334552016 M760.6764349863622,195.87187228256425 L761.6944112761785,196.55760172351813 M761.6944112761785,196.55760172351813 L762.5327859282111,197.32143925965482 M762.5327859282111,197.32143925965482 L763.1743697181223,198.14798780769053 M763.1743697181223,198.14798780769053 L763.6059200312789,199.02054366950892 M763.6059200312789,199.02054366950892 L763.8184042851267,199.9214375638602 M763.8184042851267,199.9214375638602 L763.8072181966772,200.83237905945634 M763.8072181966772,200.83237905945634 L763.5723095999901,201.73482134130586 M763.5723095999901,201.73482134130586 L763.1181762208984,202.61035167868135 M763.1181762208984,202.61035167868135 L762.4538279159158,203.44105229877584 M762.4538279159158,203.44105229877584 L761.5925960008769,204.20989209476681 M761.5925960008769,204.20989209476681 L760.5518981739157,204.90106306124017 M760.5518981739157,204.90106306124017 L759.3528793490607,205.50033193140797 M759.3528793490607,205.50033193140797 L758.019986582528,205.99533411922698 M758.019986582528,205.99533411922698 L756.5804840364565,206.3758378268201 M756.5804840364565,206.3758378268201 L755.0638577613679,206.63397302868742 M755.0638577613679,206.63397302868742 L753.50123535306,206.7643900349379 M753.50123535306,206.7643900349379 L751.9246979410038,206.7643914027912 M751.9246979410038,206.7643914027912 L750.3666351221494,206.63397257279257 M750.3666351221494,206.63397257279257 L748.8590390798499,206.37583737103625 M748.8590390798499,206.37583737103625 L747.432837028196,205.99533457484688 M747.432837028196,205.99533457484688 L746.1172557265833,205.50033295607312 M746.1172557265833,205.50033295607312 L744.9391915881954,204.90106306124017 M760.3463977989873,148.13580836760195 L761.3758358087689,148.8136115336759 M761.3758358087689,148.8136115336759 L762.2236261693549,149.56862585657052 M762.2236261693549,149.56862585657052 L762.8723851881665,150.3856338166883 M762.8723851881665,150.3856338166883 L763.3087199309667,151.24812594954506 M763.3087199309667,151.24812594954506 L763.5234948058674,152.13863779570488 M763.5234948058674,152.13863779570488 L763.5120525436478,153.0390902554721 M763.5120525436478,153.0390902554721 L763.2743396932376,153.93115009369853 M763.2743396932376,153.93115009369853 L762.8149046517045,154.79661590724947 M762.8149046517045,154.79661590724947 L762.1428597459424,155.61777489624797 M762.1428597459424,155.61777489624797 L761.2716886179263,156.3777901690105 M761.2716886179263,156.3777901690105 L760.2190086420965,157.0610334552016 M760.2190086420965,157.0610334552016 L759.0062077526597,157.6534328801048 M759.0062077526597,157.6534328801048 L757.6580145240957,158.1427637253522 M757.6580145240957,158.1427637253522 L756.2020075088758,158.51890970006014 M756.2020075088758,158.51890970006014 L754.6680130442422,158.77408947823335 M754.6680130442422,158.77408947823335 L753.0875180297787,158.90301359340884 M753.0875180297787,158.90301359340884 L751.492973744964,158.90301494560515 M751.492973744964,158.90301494560515 L749.9171430778707,158.7740890275574 M749.9171430778707,158.7740890275574 L748.3923862356917,158.51890924949544 M748.3923862356917,158.51890924949544 L746.9499852501797,158.14276417575314 M746.9499852501797,158.14276417575314 L745.619500976937,157.6534338930274 M745.619500976937,157.6534338930274 L744.4281358280786,157.0610334552016 M744.9391915881954,204.90106306124017 L743.9226604377395,204.20989198105394 M743.9226604377395,204.20989198105394 L743.0883137817198,203.44105366233765 M743.0883137817198,203.44105366233765 L742.4530145261065,202.61035031619133 M742.4530145261065,202.61035031619133 L742.0294960962717,201.73482224887994 M742.0294960962717,201.73482224887994 L741.8261404215791,200.83237951285554 M741.8261404215791,200.83237951285554 L741.8468122609388,199.9214380168682 M741.8468122609388,199.9214380168682 L742.0907952753734,199.0205445747515 M742.0907952753734,199.0205445747515 L742.5528566306049,198.14798645095004 M742.5528566306049,198.14798645095004 L743.2233441580483,197.32144061533165 M743.2233441580483,197.32144061533165 L744.088429213984,196.55760161062693 M744.088429213984,196.55760161062693 L745.1303819058949,195.87187228256425 M745.1303819058949,195.87187228256425 L746.3279556681437,195.2780450666662 M746.3279556681437,195.2780450666662 L747.6568204848769,194.78804370527104 M747.6568204848769,194.78804370527104 L749.0900385379367,194.41169483128886 M749.0900385379367,194.41169483128886 L750.5986328697472,194.15653189590557 M750.5986328697472,194.15653189590557 L752.1521266289008,194.02766374383089 M752.1521266289008,194.02766374383089 L753.7191782038358,194.02766239238844 M753.7191782038358,194.02766239238844 L755.2681665307778,194.15653234644157 M755.2681665307778,194.15653234644157 L756.7678345853553,194.41169528193416 M756.7678345853553,194.41169528193416 L758.1878973977846,194.78804325446464 M758.1878973977846,194.78804325446464 L759.4996256245913,195.27804405187942 M759.4996256245913,195.27804405187942 L760.6764349863622,195.87187228256425 M744.4281358280786,157.0610334552016 L743.4001771657245,156.3777900566024 M743.4001771657245,156.3777900566024 L742.556508075908,155.61777624415362 M742.556508075908,155.61777624415362 L741.9141783762568,154.79661456041526 M741.9141783762568,154.79661456041526 L741.4860600808754,153.93115099083536 M741.4860600808754,153.93115099083536 L741.2806231772481,153.03909070365285 M741.2806231772481,153.03909070365285 L741.3017684474528,152.13863824349454 M741.3017684474528,152.13863824349454 L741.5487632364129,151.24812684435108 M741.5487632364129,151.24812684435108 L742.016307227786,150.38563247560222 M742.016307227786,150.38563247560222 L742.6946311205012,149.56862719659318 M742.6946311205012,149.56862719659318 L743.5697426225779,148.81361142208925 M743.5697426225779,148.81361142208925 L744.623705097108,148.13580836760195 M744.623705097108,148.13580836760195 L745.8350267195517,147.5488491905789 M745.8350267195517,147.5488491905789 L747.179098725912,147.0645178795803 M747.179098725912,147.0645178795803 L748.6286764644624,146.69252566511256 M748.6286764644624,146.69252566511256 L750.1544544194801,146.44031738567526 M750.1544544194801,146.44031738567526 L751.7256113893607,146.3129417246384 M751.7256113893607,146.3129417246384 L753.3104525759884,146.3129403888487 M753.3104525759884,146.3129403888487 L754.8770012269929,146.4403178309937 M754.8770012269929,146.4403178309937 L756.3936491066775,146.69252611054014 M756.3936491066775,146.69252611054014 L757.8297710884037,147.06451743399145 M757.8297710884037,147.06451743399145 L759.1563150565305,147.54884818753197 M759.1563150565305,147.54884818753197 L760.3463977989873,148.13580836760195" stroke="black"  stroke-width="4"  fill="red"/>
<path d="M748.3195071765481,207.23952153204306 L748.3567614792548,211.00952115944716 M748.3567614792548,211.00952115944716 L3.9242550473389315,639.7562763416436 M3.0733630573010373,635.6876606609758 L3.9242550473389315,639.7562763416436 M748.3195071765481,207.23952153204306 L3.0733630573010373,635.6876606609758 M748.3567614792548,211.00952115944716 L749.1667720843625,211.48675765238482 M749.1667720843625,211.48675765238482 L749.1302390491071,207.71633891594877 M749.1302390491071,207.71633891594877 L748.3195071765481,207.23952153204306 M749.1667720843625,211.48675765238482 L4.6966812382962075,640.4459772743036 M3.9242550473389315,639.7562763416436 L4.6966812382962075,640.4459772743036 M3.846395479716307,636.3770069194006 L3.0733630573010373,635.6876606609758 M4.6966812382962075,640.4459772743036 L3.846395479716307,636.3770069194006 M749.1302390491071,207.71633891594877 L3.846395479716307,636.3770069194006" stroke="black"  stroke-width="4"  fill="red"/>
<path d="M-6.169401941209799,651.7465753327831 L-7.251682464543194,646.6534901961181 M6.348792528142155,642.3345895156874 L5.287453664412112,637.2474898436611 M-6.169401941209799,651.7465753327831 L6.348792528142155,642.3345895156874 M-7.251682464543194,646.6534901961181 L5.287453664412112,637.2474898436611 M2.4870384875391096,638.8858627744124 L1.421910670789373,633.8009798158631 M6.348792528142155,642.3345895156874 L2.4870384875391096,638.8858627744124 M5.287453664412112,637.2474898436611 L1.421910670789373,633.8009798158631 M-12.98546314373067,645.6101913579342 L-14.074394205637361,640.5209979348379 M2.4870384875391096,638.8858627744124 L-12.98546314373067,645.6101913579342 M1.421910670789373,633.8009798158631 L-14.074394205637361,640.5209979348379 M-16.027562958717624,652.3888787272203 L-17.123524018029173,647.2953885494304 M-12.98546314373067,645.6101913579342 L-14.10010026330798,646.1608348267039 M-14.10010026330798,646.1608348267039 L-15.08195557859284,646.8296631333982 M-15.08195557859284,646.8296631333982 L-15.893710663741444,647.5914094783196 M-15.893710663741444,647.5914094783196 L-16.504251441268195,648.417136889352 M-16.504251441268195,648.417136889352 L-16.89023372875613,649.2755323798036 M-16.89023372875613,649.2755323798036 L-17.036754429124812,650.1339444007357 M-17.036754429124812,650.1339444007357 L-16.937872655228944,650.9595767358935 M-16.937872655228944,650.9595767358935 L-16.597223461726855,651.7209429342462 M-16.597223461726855,651.7209429342462 L-16.027562958717624,652.3888787272203 M-14.074394205637361,640.5209979348379 L-15.190778674048829,641.0712905522333 M-15.190778674048829,641.0712905522333 L-16.174252341721285,641.7396931368362 M-16.174252341721285,641.7396931368362 L-16.987435342008496,642.5009551936173 M-16.987435342008496,642.5009551936173 L-17.59915885538834,643.3261583352336 M-17.59915885538834,643.3261583352336 L-17.98603335788556,644.1840095815804 M-17.98603335788556,644.1840095815804 L-18.133121210468687,645.0418781296975 M-18.133121210468687,645.0418781296975 L-18.034459060141728,645.8669884828932 M-18.034459060141728,645.8669884828932 L-17.693673092114068,646.6278739706379 M-17.693673092114068,646.6278739706379 L-17.123524018029173,647.2953885494304 M-16.027562958717624,652.3888787272203 L-15.250526235691723,652.9377986844164 M-15.250526235691723,652.9377986844164 L-14.295669478435514,653.3466098089509 M-14.295669478435514,653.3466098089509 L-13.19949403972032,653.5996256273648 M-13.19949403972032,653.5996256273648 L-12.003825937218437,653.6870596111513 M-12.003825937218437,653.6870596111513 L-10.754546819148288,653.6056148649246 M-10.754546819148288,653.6056148649246 L-9.499463696456417,653.3584121281995 M-9.499463696456417,653.3584121281995 L-8.286529363359364,652.9549126230738 M-8.286529363359364,652.9549126230738 L-7.1622267641031385,652.41068411473 M-7.1622267641031385,652.41068411473 L-6.169401941209799,651.7465753327831 M-17.123524018029173,647.2953885494304 L-16.34566525514697,647.843962700636 M-16.34566525514697,647.843962700636 L-15.38968415772672,648.252516491975 M-15.38968415772672,648.252516491975 L-14.292125153215693,648.5053731340587 M-14.292125153215693,648.5053731340587 L-13.09486722382394,648.592752127507 M-13.09486722382394,648.592752127507 L-11.843853353602242,648.5113586045156 M-11.843853353602242,648.5113586045156 L-10.58695727304223,648.2643113846841 M-10.58695727304223,648.2643113846841 L-9.372201361913199,647.8610658630743 M-9.372201361913199,647.8610658630743 L-8.246138658797975,647.3171801939881 M-8.246138658797975,647.3171801939881 L-7.251682464543194,646.6534901961181 M-13.612570315993992,650.9973734595424 L-14.70465239615072,645.9047613279779 M-7.586548137397756,647.5252131488575 L-8.668966758066517,642.4348009247336 M-13.612570315993992,650.9973734595424 L-13.985889353530013,650.5309168882072 M-13.985889353530013,650.5309168882072 L-14.162033037525475,649.9907380053539 M-14.162033037525475,649.9907380053539 L-14.130986988005475,649.4083647460756 M-14.130986988005475,649.4083647460756 L-13.894622592568851,648.8176352859593 M-13.894622592568851,648.8176352859593 L-13.466843056463688,648.2528882956839 M-13.466843056463688,648.2528882956839 L-12.8725228981138,647.7468430826186 M-12.8725228981138,647.7468430826186 L-12.146369701631613,647.3288991257356 M-12.146369701631613,647.3288991257356 L-11.330419185603546,647.0231716379487 M-11.330419185603546,647.0231716379487 L-10.472131849244022,646.8474186634971 M-10.472131849244022,646.8474186634971 L-9.621176967246527,646.8117525160029 M-9.621176967246527,646.8117525160029 L-8.82690322158794,646.9182541068795 M-8.82690322158794,646.9182541068795 L-8.135282071927463,647.1607267128784 M-8.135282071927463,647.1607267128784 L-7.586548137397756,647.5252131488575 M-14.70465239615072,645.9047613279779 L-15.078279668493735,645.4385995526242 M-15.078279668493735,645.4385995526242 L-15.254431952388813,644.8987623459822 M-15.254431952388813,644.8987623459822 L-15.223094882772273,644.3167577986717 M-15.223094882772273,644.3167577986717 L-14.986157037429052,643.7264027086084 M-14.986157037429052,643.7264027086084 L-14.557555357926788,643.1620139683637 M-14.557555357926788,643.1620139683637 L-13.96221224731056,642.656290055014 M-13.96221224731056,642.656290055014 L-13.234895013397647,642.2386116651926 M-13.234895013397647,642.2386116651926 L-12.417706683862377,641.933078558018 M-12.417706683862377,641.933078558018 L-11.55817962289774,641.7574373716651 M-11.55817962289774,641.7574373716651 L-10.706054646954328,641.7217939137092 M-10.706054646954328,641.7217939137092 L-9.910748109992198,641.8282277560523 M-9.910748109992198,641.8282277560523 L-9.218291074917317,642.0705461635754 M-9.218291074917317,642.0705461635754 L-8.668966758066517,642.4348009247336 M-7.586548137397756,647.5252131488575 L-7.2125030120816405,647.9905751834864 M-7.2125030120816405,647.9905751834864 L-7.035031754895556,648.5299102283378 M-7.035031754895556,648.5299102283378 L-7.064453114849982,649.1118837505581 M-7.064453114849982,649.1118837505581 L-7.299267741780284,649.7027490911468 M-7.299267741780284,649.7027490911468 L-7.725927505865457,650.2681364444015 M-7.725927505865457,650.2681364444015 L-8.319814393822696,650.7751798874215 M-8.319814393822696,650.7751798874215 L-9.046320095666943,651.1942511160871 M-9.046320095666943,651.1942511160871 L-9.863328200449018,651.5009768710945 M-9.863328200449018,651.5009768710945 L-10.723135794842051,651.6773701867501 M-10.723135794842051,651.6773701867501 L-11.575725425705741,651.71317220623 M-11.575725425705741,651.71317220623 L-12.371373842673279,651.6062708208513 M-12.371373842673279,651.6062708208513 L-13.063794849840065,651.3629544825066 M-13.063794849840065,651.3629544825066 L-13.612570315993992,650.9973734595424 M-8.668966758066517,642.4348009247336 L-8.294610957562725,642.899867370864 M-8.294610957562725,642.899867370864 L-8.117127131528548,643.4388601285104 M-8.117127131528548,643.4388601285104 L-8.14683492398649,644.0204646493273 M-8.14683492398649,644.0204646493273 L-8.382218845089028,644.6109557182492 M-8.382218845089028,644.6109557182492 L-8.809697980834642,645.1759852851375 M-8.809697980834642,645.1759852851375 L-9.404607068269058,645.6827081512263 M-9.404607068269058,645.6827081512263 L-10.132278246143926,646.1015146290507 M-10.132278246143926,646.1015146290507 L-10.950527465111406,646.408046726259 M-10.950527465111406,646.408046726259 L-11.81157919025992,646.5843287174669 M-11.81157919025992,646.5843287174669 L-12.665343417617407,646.6201081457893 M-12.665343417617407,646.6201081457893 L-13.462028193139474,646.5132742194652 M-13.462028193139474,646.5132742194652 L-14.155286901021668,646.2701114686763 M-14.155286901021668,646.2701114686763 L-14.70465239615072,645.9047613279779" stroke="black"  stroke-width="4"  fill="red"/></svg>